<svg xmlns="http://www.w3.org/2000/svg" xmlns:xlink="http://www.w3.org/1999/xlink" width="500" zoomAndPan="magnify" viewBox="0 0 375 374.999991" height="500" preserveAspectRatio="xMidYMid meet" version="1.0"><defs><clipPath id="155058e73b"><path d="M 375 187.5 C 375 190.570312 374.925781 193.636719 374.773438 196.699219 C 374.625 199.765625 374.398438 202.824219 374.097656 205.878906 C 373.796875 208.933594 373.421875 211.976562 372.96875 215.011719 C 372.519531 218.046875 371.996094 221.070312 371.398438 224.078125 C 370.796875 227.089844 370.125 230.082031 369.378906 233.058594 C 368.636719 236.035156 367.816406 238.992188 366.925781 241.929688 C 366.035156 244.863281 365.074219 247.777344 364.039062 250.667969 C 363.003906 253.554688 361.902344 256.417969 360.726562 259.253906 C 359.554688 262.089844 358.308594 264.890625 356.996094 267.667969 C 355.6875 270.441406 354.308594 273.179688 352.859375 275.886719 C 351.414062 278.59375 349.902344 281.261719 348.324219 283.894531 C 346.746094 286.527344 345.105469 289.117188 343.402344 291.667969 C 341.695312 294.222656 339.929688 296.730469 338.101562 299.195312 C 336.273438 301.660156 334.386719 304.078125 332.441406 306.449219 C 330.492188 308.820312 328.488281 311.144531 326.429688 313.417969 C 324.367188 315.691406 322.253906 317.914062 320.082031 320.082031 C 317.914062 322.253906 315.691406 324.367188 313.417969 326.429688 C 311.144531 328.488281 308.820312 330.492188 306.449219 332.441406 C 304.078125 334.386719 301.660156 336.273438 299.195312 338.101562 C 296.730469 339.929688 294.222656 341.695312 291.667969 343.402344 C 289.117188 345.105469 286.527344 346.746094 283.894531 348.324219 C 281.261719 349.902344 278.59375 351.414062 275.886719 352.859375 C 273.179688 354.308594 270.441406 355.6875 267.667969 356.996094 C 264.894531 358.308594 262.089844 359.554688 259.253906 360.726562 C 256.417969 361.902344 253.554688 363.003906 250.667969 364.039062 C 247.777344 365.074219 244.863281 366.035156 241.929688 366.925781 C 238.992188 367.816406 236.035156 368.636719 233.058594 369.378906 C 230.082031 370.125 227.089844 370.796875 224.078125 371.398438 C 221.070312 371.996094 218.046875 372.519531 215.011719 372.96875 C 211.976562 373.421875 208.933594 373.796875 205.878906 374.097656 C 202.824219 374.398438 199.765625 374.625 196.699219 374.773438 C 193.636719 374.925781 190.570312 375 187.5 375 C 184.429688 375 181.363281 374.925781 178.300781 374.773438 C 175.234375 374.625 172.175781 374.398438 169.121094 374.097656 C 166.066406 373.796875 163.023438 373.421875 159.988281 372.96875 C 156.953125 372.519531 153.929688 371.996094 150.921875 371.398438 C 147.910156 370.796875 144.917969 370.125 141.941406 369.378906 C 138.964844 368.636719 136.007812 367.816406 133.070312 366.925781 C 130.136719 366.035156 127.222656 365.074219 124.332031 364.039062 C 121.445312 363.003906 118.582031 361.902344 115.746094 360.726562 C 112.910156 359.554688 110.105469 358.308594 107.332031 356.996094 C 104.558594 355.6875 101.820312 354.308594 99.113281 352.859375 C 96.40625 351.414062 93.738281 349.902344 91.105469 348.324219 C 88.472656 346.746094 85.882812 345.105469 83.332031 343.402344 C 80.777344 341.695312 78.269531 339.929688 75.804688 338.101562 C 73.339844 336.273438 70.921875 334.386719 68.550781 332.441406 C 66.179688 330.492188 63.855469 328.488281 61.582031 326.429688 C 59.308594 324.367188 57.085938 322.253906 54.917969 320.082031 C 52.746094 317.914062 50.632812 315.691406 48.570312 313.417969 C 46.511719 311.144531 44.507812 308.820312 42.558594 306.449219 C 40.613281 304.078125 38.726562 301.660156 36.898438 299.195312 C 35.070312 296.730469 33.304688 294.222656 31.597656 291.667969 C 29.894531 289.117188 28.253906 286.527344 26.675781 283.894531 C 25.097656 281.261719 23.585938 278.59375 22.140625 275.886719 C 20.691406 273.179688 19.3125 270.441406 18.003906 267.667969 C 16.691406 264.890625 15.445312 262.089844 14.273438 259.253906 C 13.097656 256.417969 11.996094 253.554688 10.960938 250.667969 C 9.925781 247.777344 8.964844 244.863281 8.074219 241.929688 C 7.183594 238.992188 6.363281 236.035156 5.621094 233.058594 C 4.875 230.082031 4.203125 227.089844 3.601562 224.078125 C 3.003906 221.070312 2.480469 218.046875 2.03125 215.011719 C 1.578125 211.976562 1.203125 208.933594 0.902344 205.878906 C 0.601562 202.824219 0.375 199.765625 0.226562 196.699219 C 0.0742188 193.636719 0 190.570312 0 187.5 C 0 184.429688 0.0742188 181.363281 0.226562 178.300781 C 0.375 175.234375 0.601562 172.175781 0.902344 169.121094 C 1.203125 166.066406 1.578125 163.023438 2.03125 159.988281 C 2.480469 156.953125 3.003906 153.929688 3.601562 150.921875 C 4.203125 147.910156 4.875 144.917969 5.621094 141.941406 C 6.363281 138.964844 7.183594 136.007812 8.074219 133.070312 C 8.964844 130.136719 9.925781 127.222656 10.960938 124.332031 C 11.996094 121.445312 13.097656 118.582031 14.273438 115.746094 C 15.445312 112.910156 16.691406 110.105469 18.003906 107.332031 C 19.3125 104.558594 20.691406 101.820312 22.140625 99.113281 C 23.585938 96.40625 25.097656 93.738281 26.675781 91.105469 C 28.253906 88.472656 29.894531 85.882812 31.597656 83.332031 C 33.304688 80.777344 35.070312 78.269531 36.898438 75.804688 C 38.726562 73.339844 40.613281 70.921875 42.558594 68.550781 C 44.507812 66.179688 46.511719 63.855469 48.570312 61.582031 C 50.632812 59.308594 52.746094 57.085938 54.917969 54.917969 C 57.085938 52.746094 59.308594 50.632812 61.582031 48.570312 C 63.855469 46.511719 66.179688 44.507812 68.550781 42.558594 C 70.921875 40.613281 73.339844 38.726562 75.804688 36.898438 C 78.269531 35.070312 80.777344 33.304688 83.332031 31.597656 C 85.882812 29.894531 88.472656 28.253906 91.105469 26.675781 C 93.738281 25.097656 96.40625 23.585938 99.113281 22.140625 C 101.820312 20.691406 104.558594 19.3125 107.332031 18.003906 C 110.105469 16.691406 112.910156 15.445312 115.746094 14.273438 C 118.582031 13.097656 121.445312 11.996094 124.332031 10.960938 C 127.222656 9.925781 130.136719 8.964844 133.070312 8.074219 C 136.007812 7.183594 138.964844 6.363281 141.941406 5.617188 C 144.917969 4.875 147.910156 4.203125 150.921875 3.601562 C 153.929688 3.003906 156.953125 2.480469 159.988281 2.03125 C 163.023438 1.578125 166.066406 1.203125 169.121094 0.902344 C 172.175781 0.601562 175.234375 0.375 178.300781 0.226562 C 181.363281 0.0742188 184.429688 0 187.5 0 C 190.570312 0 193.636719 0.0742188 196.699219 0.226562 C 199.765625 0.375 202.824219 0.601562 205.878906 0.902344 C 208.933594 1.203125 211.976562 1.578125 215.011719 2.03125 C 218.046875 2.480469 221.070312 3.003906 224.078125 3.601562 C 227.089844 4.203125 230.082031 4.875 233.058594 5.617188 C 236.035156 6.363281 238.992188 7.183594 241.929688 8.074219 C 244.863281 8.964844 247.777344 9.925781 250.667969 10.960938 C 253.554688 11.996094 256.417969 13.097656 259.253906 14.273438 C 262.089844 15.445312 264.894531 16.691406 267.667969 18.003906 C 270.441406 19.3125 273.179688 20.691406 275.886719 22.140625 C 278.59375 23.585938 281.261719 25.097656 283.894531 26.675781 C 286.527344 28.253906 289.117188 29.894531 291.667969 31.597656 C 294.222656 33.304688 296.730469 35.070312 299.195312 36.898438 C 301.660156 38.726562 304.078125 40.613281 306.449219 42.558594 C 308.820312 44.507812 311.144531 46.511719 313.417969 48.570312 C 315.691406 50.632812 317.914062 52.746094 320.082031 54.917969 C 322.253906 57.085938 324.367188 59.308594 326.429688 61.582031 C 328.488281 63.855469 330.492188 66.179688 332.441406 68.550781 C 334.386719 70.921875 336.273438 73.339844 338.101562 75.804688 C 339.929688 78.269531 341.695312 80.777344 343.402344 83.332031 C 345.105469 85.882812 346.746094 88.472656 348.324219 91.105469 C 349.902344 93.738281 351.414062 96.40625 352.859375 99.113281 C 354.308594 101.820312 355.6875 104.558594 356.996094 107.332031 C 358.308594 110.105469 359.554688 112.910156 360.726562 115.746094 C 361.902344 118.582031 363.003906 121.445312 364.039062 124.332031 C 365.074219 127.222656 366.035156 130.136719 366.925781 133.070312 C 367.816406 136.007812 368.636719 138.964844 369.378906 141.941406 C 370.125 144.917969 370.796875 147.910156 371.398438 150.921875 C 371.996094 153.929688 372.519531 156.953125 372.96875 159.988281 C 373.421875 163.023438 373.796875 166.066406 374.097656 169.121094 C 374.398438 172.175781 374.625 175.234375 374.773438 178.300781 C 374.925781 181.363281 375 184.429688 375 187.5 Z M 375 187.5 " clip-rule="nonzero"/></clipPath><linearGradient x1="1333.32996" gradientTransform="matrix(0.14066, 0, 0, 0.14066, 0.0000045, 0)" y1="0" x2="1333.32996" gradientUnits="userSpaceOnUse" y2="2665.999852" id="8df0300c66"><stop stop-opacity="1" stop-color="rgb(39.99939%, 39.99939%, 79.998779%)" offset="0"/><stop stop-opacity="1" stop-color="rgb(40.458679%, 39.692688%, 80.151367%)" offset="0.00390625"/><stop stop-opacity="1" stop-color="rgb(40.917969%, 39.385986%, 80.305481%)" offset="0.0078125"/><stop stop-opacity="1" stop-color="rgb(41.377258%, 39.079285%, 80.458069%)" offset="0.0117188"/><stop stop-opacity="1" stop-color="rgb(41.836548%, 38.774109%, 80.612183%)" offset="0.015625"/><stop stop-opacity="1" stop-color="rgb(42.295837%, 38.467407%, 80.764771%)" offset="0.0195312"/><stop stop-opacity="1" stop-color="rgb(42.756653%, 38.160706%, 80.918884%)" offset="0.0234375"/><stop stop-opacity="1" stop-color="rgb(43.215942%, 37.854004%, 81.071472%)" offset="0.0273437"/><stop stop-opacity="1" stop-color="rgb(43.675232%, 37.548828%, 81.22406%)" offset="0.03125"/><stop stop-opacity="1" stop-color="rgb(44.134521%, 37.242126%, 81.376648%)" offset="0.0351562"/><stop stop-opacity="1" stop-color="rgb(44.593811%, 36.936951%, 81.530762%)" offset="0.0390625"/><stop stop-opacity="1" stop-color="rgb(45.053101%, 36.630249%, 81.68335%)" offset="0.0429688"/><stop stop-opacity="1" stop-color="rgb(45.51239%, 36.323547%, 81.837463%)" offset="0.046875"/><stop stop-opacity="1" stop-color="rgb(45.97168%, 36.016846%, 81.990051%)" offset="0.0507812"/><stop stop-opacity="1" stop-color="rgb(46.430969%, 35.71167%, 82.142639%)" offset="0.0546875"/><stop stop-opacity="1" stop-color="rgb(46.890259%, 35.404968%, 82.295227%)" offset="0.0585938"/><stop stop-opacity="1" stop-color="rgb(47.351074%, 35.098267%, 82.449341%)" offset="0.0625"/><stop stop-opacity="1" stop-color="rgb(47.810364%, 34.791565%, 82.601929%)" offset="0.0664062"/><stop stop-opacity="1" stop-color="rgb(48.269653%, 34.486389%, 82.756042%)" offset="0.0703125"/><stop stop-opacity="1" stop-color="rgb(48.728943%, 34.179688%, 82.90863%)" offset="0.0742188"/><stop stop-opacity="1" stop-color="rgb(49.188232%, 33.872986%, 83.062744%)" offset="0.078125"/><stop stop-opacity="1" stop-color="rgb(49.647522%, 33.566284%, 83.215332%)" offset="0.0820312"/><stop stop-opacity="1" stop-color="rgb(50.106812%, 33.261108%, 83.36792%)" offset="0.0859375"/><stop stop-opacity="1" stop-color="rgb(50.566101%, 32.954407%, 83.520508%)" offset="0.0898438"/><stop stop-opacity="1" stop-color="rgb(51.025391%, 32.647705%, 83.674622%)" offset="0.09375"/><stop stop-opacity="1" stop-color="rgb(51.48468%, 32.341003%, 83.827209%)" offset="0.0976562"/><stop stop-opacity="1" stop-color="rgb(51.945496%, 32.035828%, 83.981323%)" offset="0.101562"/><stop stop-opacity="1" stop-color="rgb(52.404785%, 31.729126%, 84.133911%)" offset="0.105469"/><stop stop-opacity="1" stop-color="rgb(52.864075%, 31.422424%, 84.288025%)" offset="0.109375"/><stop stop-opacity="1" stop-color="rgb(53.323364%, 31.115723%, 84.440613%)" offset="0.113281"/><stop stop-opacity="1" stop-color="rgb(53.782654%, 30.810547%, 84.593201%)" offset="0.117188"/><stop stop-opacity="1" stop-color="rgb(54.241943%, 30.503845%, 84.745789%)" offset="0.121094"/><stop stop-opacity="1" stop-color="rgb(54.701233%, 30.197144%, 84.899902%)" offset="0.125"/><stop stop-opacity="1" stop-color="rgb(55.160522%, 29.890442%, 85.05249%)" offset="0.128906"/><stop stop-opacity="1" stop-color="rgb(55.619812%, 29.585266%, 85.206604%)" offset="0.132812"/><stop stop-opacity="1" stop-color="rgb(56.079102%, 29.278564%, 85.359192%)" offset="0.136719"/><stop stop-opacity="1" stop-color="rgb(56.539917%, 28.971863%, 85.513306%)" offset="0.140625"/><stop stop-opacity="1" stop-color="rgb(56.999207%, 28.665161%, 85.665894%)" offset="0.144531"/><stop stop-opacity="1" stop-color="rgb(57.458496%, 28.359985%, 85.818481%)" offset="0.148438"/><stop stop-opacity="1" stop-color="rgb(57.917786%, 28.053284%, 85.971069%)" offset="0.152344"/><stop stop-opacity="1" stop-color="rgb(58.377075%, 27.748108%, 86.125183%)" offset="0.15625"/><stop stop-opacity="1" stop-color="rgb(58.836365%, 27.441406%, 86.277771%)" offset="0.160156"/><stop stop-opacity="1" stop-color="rgb(59.295654%, 27.134705%, 86.431885%)" offset="0.164062"/><stop stop-opacity="1" stop-color="rgb(59.754944%, 26.828003%, 86.584473%)" offset="0.167969"/><stop stop-opacity="1" stop-color="rgb(60.214233%, 26.522827%, 86.737061%)" offset="0.171875"/><stop stop-opacity="1" stop-color="rgb(60.673523%, 26.216125%, 86.889648%)" offset="0.175781"/><stop stop-opacity="1" stop-color="rgb(61.134338%, 25.909424%, 87.043762%)" offset="0.179688"/><stop stop-opacity="1" stop-color="rgb(61.593628%, 25.602722%, 87.19635%)" offset="0.183594"/><stop stop-opacity="1" stop-color="rgb(62.052917%, 25.297546%, 87.350464%)" offset="0.1875"/><stop stop-opacity="1" stop-color="rgb(62.512207%, 24.990845%, 87.503052%)" offset="0.191406"/><stop stop-opacity="1" stop-color="rgb(62.971497%, 24.684143%, 87.657166%)" offset="0.195312"/><stop stop-opacity="1" stop-color="rgb(63.430786%, 24.377441%, 87.809753%)" offset="0.199219"/><stop stop-opacity="1" stop-color="rgb(63.890076%, 24.072266%, 87.962341%)" offset="0.203125"/><stop stop-opacity="1" stop-color="rgb(64.349365%, 23.765564%, 88.114929%)" offset="0.207031"/><stop stop-opacity="1" stop-color="rgb(64.808655%, 23.458862%, 88.269043%)" offset="0.210938"/><stop stop-opacity="1" stop-color="rgb(65.267944%, 23.152161%, 88.421631%)" offset="0.214844"/><stop stop-opacity="1" stop-color="rgb(65.72876%, 22.846985%, 88.575745%)" offset="0.21875"/><stop stop-opacity="1" stop-color="rgb(66.188049%, 22.540283%, 88.728333%)" offset="0.222656"/><stop stop-opacity="1" stop-color="rgb(66.647339%, 22.233582%, 88.882446%)" offset="0.226562"/><stop stop-opacity="1" stop-color="rgb(67.106628%, 21.92688%, 89.035034%)" offset="0.230469"/><stop stop-opacity="1" stop-color="rgb(67.565918%, 21.621704%, 89.187622%)" offset="0.234375"/><stop stop-opacity="1" stop-color="rgb(68.025208%, 21.315002%, 89.34021%)" offset="0.238281"/><stop stop-opacity="1" stop-color="rgb(68.484497%, 21.008301%, 89.494324%)" offset="0.242188"/><stop stop-opacity="1" stop-color="rgb(68.943787%, 20.701599%, 89.646912%)" offset="0.246094"/><stop stop-opacity="1" stop-color="rgb(69.403076%, 20.396423%, 89.801025%)" offset="0.25"/><stop stop-opacity="1" stop-color="rgb(69.862366%, 20.089722%, 89.953613%)" offset="0.253906"/><stop stop-opacity="1" stop-color="rgb(70.323181%, 19.78302%, 90.107727%)" offset="0.257812"/><stop stop-opacity="1" stop-color="rgb(70.782471%, 19.476318%, 90.260315%)" offset="0.261719"/><stop stop-opacity="1" stop-color="rgb(71.24176%, 19.171143%, 90.412903%)" offset="0.265625"/><stop stop-opacity="1" stop-color="rgb(71.70105%, 18.864441%, 90.565491%)" offset="0.269531"/><stop stop-opacity="1" stop-color="rgb(72.160339%, 18.557739%, 90.719604%)" offset="0.273438"/><stop stop-opacity="1" stop-color="rgb(72.619629%, 18.251038%, 90.872192%)" offset="0.277344"/><stop stop-opacity="1" stop-color="rgb(73.078918%, 17.945862%, 91.026306%)" offset="0.28125"/><stop stop-opacity="1" stop-color="rgb(73.538208%, 17.63916%, 91.178894%)" offset="0.285156"/><stop stop-opacity="1" stop-color="rgb(73.997498%, 17.333984%, 91.331482%)" offset="0.289062"/><stop stop-opacity="1" stop-color="rgb(74.456787%, 17.027283%, 91.48407%)" offset="0.292969"/><stop stop-opacity="1" stop-color="rgb(74.917603%, 16.720581%, 91.638184%)" offset="0.296875"/><stop stop-opacity="1" stop-color="rgb(75.376892%, 16.413879%, 91.790771%)" offset="0.300781"/><stop stop-opacity="1" stop-color="rgb(75.836182%, 16.108704%, 91.944885%)" offset="0.304688"/><stop stop-opacity="1" stop-color="rgb(76.295471%, 15.802002%, 92.097473%)" offset="0.308594"/><stop stop-opacity="1" stop-color="rgb(76.754761%, 15.4953%, 92.251587%)" offset="0.3125"/><stop stop-opacity="1" stop-color="rgb(77.21405%, 15.188599%, 92.404175%)" offset="0.316406"/><stop stop-opacity="1" stop-color="rgb(77.67334%, 14.883423%, 92.556763%)" offset="0.320312"/><stop stop-opacity="1" stop-color="rgb(78.132629%, 14.576721%, 92.709351%)" offset="0.324219"/><stop stop-opacity="1" stop-color="rgb(78.591919%, 14.27002%, 92.863464%)" offset="0.328125"/><stop stop-opacity="1" stop-color="rgb(79.051208%, 13.963318%, 93.016052%)" offset="0.332031"/><stop stop-opacity="1" stop-color="rgb(79.512024%, 13.658142%, 93.170166%)" offset="0.335938"/><stop stop-opacity="1" stop-color="rgb(79.971313%, 13.35144%, 93.322754%)" offset="0.339844"/><stop stop-opacity="1" stop-color="rgb(80.430603%, 13.044739%, 93.476868%)" offset="0.34375"/><stop stop-opacity="1" stop-color="rgb(80.889893%, 12.738037%, 93.629456%)" offset="0.347656"/><stop stop-opacity="1" stop-color="rgb(81.349182%, 12.432861%, 93.782043%)" offset="0.351562"/><stop stop-opacity="1" stop-color="rgb(81.808472%, 12.12616%, 93.934631%)" offset="0.355469"/><stop stop-opacity="1" stop-color="rgb(82.267761%, 11.819458%, 94.088745%)" offset="0.359375"/><stop stop-opacity="1" stop-color="rgb(82.727051%, 11.512756%, 94.241333%)" offset="0.363281"/><stop stop-opacity="1" stop-color="rgb(83.18634%, 11.207581%, 94.395447%)" offset="0.367188"/><stop stop-opacity="1" stop-color="rgb(83.64563%, 10.900879%, 94.548035%)" offset="0.371094"/><stop stop-opacity="1" stop-color="rgb(84.106445%, 10.594177%, 94.702148%)" offset="0.375"/><stop stop-opacity="1" stop-color="rgb(84.565735%, 10.287476%, 94.854736%)" offset="0.378906"/><stop stop-opacity="1" stop-color="rgb(85.025024%, 9.9823%, 95.007324%)" offset="0.382812"/><stop stop-opacity="1" stop-color="rgb(85.484314%, 9.675598%, 95.159912%)" offset="0.386719"/><stop stop-opacity="1" stop-color="rgb(85.943604%, 9.368896%, 95.314026%)" offset="0.390625"/><stop stop-opacity="1" stop-color="rgb(86.402893%, 9.062195%, 95.466614%)" offset="0.394531"/><stop stop-opacity="1" stop-color="rgb(86.862183%, 8.757019%, 95.620728%)" offset="0.398438"/><stop stop-opacity="1" stop-color="rgb(87.321472%, 8.450317%, 95.773315%)" offset="0.402344"/><stop stop-opacity="1" stop-color="rgb(87.782288%, 8.143616%, 95.927429%)" offset="0.40625"/><stop stop-opacity="1" stop-color="rgb(88.241577%, 7.836914%, 96.080017%)" offset="0.410156"/><stop stop-opacity="1" stop-color="rgb(88.700867%, 7.531738%, 96.232605%)" offset="0.414062"/><stop stop-opacity="1" stop-color="rgb(89.160156%, 7.225037%, 96.385193%)" offset="0.417969"/><stop stop-opacity="1" stop-color="rgb(89.619446%, 6.919861%, 96.539307%)" offset="0.421875"/><stop stop-opacity="1" stop-color="rgb(90.078735%, 6.613159%, 96.691895%)" offset="0.425781"/><stop stop-opacity="1" stop-color="rgb(90.538025%, 6.306458%, 96.846008%)" offset="0.429688"/><stop stop-opacity="1" stop-color="rgb(90.997314%, 5.999756%, 96.998596%)" offset="0.433594"/><stop stop-opacity="1" stop-color="rgb(91.456604%, 5.69458%, 97.151184%)" offset="0.4375"/><stop stop-opacity="1" stop-color="rgb(91.915894%, 5.387878%, 97.303772%)" offset="0.441406"/><stop stop-opacity="1" stop-color="rgb(92.376709%, 5.081177%, 97.457886%)" offset="0.445312"/><stop stop-opacity="1" stop-color="rgb(92.835999%, 4.774475%, 97.610474%)" offset="0.449219"/><stop stop-opacity="1" stop-color="rgb(93.295288%, 4.469299%, 97.764587%)" offset="0.453125"/><stop stop-opacity="1" stop-color="rgb(93.754578%, 4.162598%, 97.917175%)" offset="0.457031"/><stop stop-opacity="1" stop-color="rgb(94.213867%, 3.855896%, 98.071289%)" offset="0.460937"/><stop stop-opacity="1" stop-color="rgb(94.673157%, 3.549194%, 98.223877%)" offset="0.464844"/><stop stop-opacity="1" stop-color="rgb(95.132446%, 3.244019%, 98.376465%)" offset="0.46875"/><stop stop-opacity="1" stop-color="rgb(95.591736%, 2.937317%, 98.529053%)" offset="0.472656"/><stop stop-opacity="1" stop-color="rgb(96.051025%, 2.630615%, 98.683167%)" offset="0.476562"/><stop stop-opacity="1" stop-color="rgb(96.510315%, 2.323914%, 98.835754%)" offset="0.480469"/><stop stop-opacity="1" stop-color="rgb(96.97113%, 2.018738%, 98.989868%)" offset="0.484375"/><stop stop-opacity="1" stop-color="rgb(97.43042%, 1.712036%, 99.142456%)" offset="0.488281"/><stop stop-opacity="1" stop-color="rgb(97.889709%, 1.405334%, 99.29657%)" offset="0.492188"/><stop stop-opacity="1" stop-color="rgb(98.348999%, 1.098633%, 99.449158%)" offset="0.496094"/><stop stop-opacity="1" stop-color="rgb(98.808289%, 0.793457%, 99.601746%)" offset="0.5"/><stop stop-opacity="1" stop-color="rgb(99.267578%, 0.486755%, 99.754333%)" offset="0.503906"/><stop stop-opacity="1" stop-color="rgb(99.726868%, 0.180054%, 99.908447%)" offset="0.507812"/><stop stop-opacity="1" stop-color="rgb(99.862671%, 0.314331%, 99.3927%)" offset="0.511719"/><stop stop-opacity="1" stop-color="rgb(100%, 0.448608%, 98.876953%)" offset="0.515625"/><stop stop-opacity="1" stop-color="rgb(100%, 0.765991%, 98.080444%)" offset="0.519531"/><stop stop-opacity="1" stop-color="rgb(100%, 1.0849%, 97.283936%)" offset="0.523438"/><stop stop-opacity="1" stop-color="rgb(100%, 1.403809%, 96.485901%)" offset="0.527344"/><stop stop-opacity="1" stop-color="rgb(100%, 1.722717%, 95.689392%)" offset="0.53125"/><stop stop-opacity="1" stop-color="rgb(100%, 2.041626%, 94.891357%)" offset="0.535156"/><stop stop-opacity="1" stop-color="rgb(100%, 2.360535%, 94.094849%)" offset="0.539062"/><stop stop-opacity="1" stop-color="rgb(100%, 2.679443%, 93.29834%)" offset="0.542969"/><stop stop-opacity="1" stop-color="rgb(100%, 2.998352%, 92.501831%)" offset="0.546875"/><stop stop-opacity="1" stop-color="rgb(100%, 3.317261%, 91.703796%)" offset="0.550781"/><stop stop-opacity="1" stop-color="rgb(100%, 3.636169%, 90.907288%)" offset="0.554688"/><stop stop-opacity="1" stop-color="rgb(100%, 3.955078%, 90.109253%)" offset="0.558594"/><stop stop-opacity="1" stop-color="rgb(100%, 4.273987%, 89.312744%)" offset="0.5625"/><stop stop-opacity="1" stop-color="rgb(100%, 4.592896%, 88.516235%)" offset="0.566406"/><stop stop-opacity="1" stop-color="rgb(100%, 4.911804%, 87.719727%)" offset="0.570312"/><stop stop-opacity="1" stop-color="rgb(100%, 5.229187%, 86.921692%)" offset="0.574219"/><stop stop-opacity="1" stop-color="rgb(100%, 5.548096%, 86.125183%)" offset="0.578125"/><stop stop-opacity="1" stop-color="rgb(100%, 5.867004%, 85.327148%)" offset="0.582031"/><stop stop-opacity="1" stop-color="rgb(100%, 6.185913%, 84.53064%)" offset="0.585938"/><stop stop-opacity="1" stop-color="rgb(100%, 6.504822%, 83.734131%)" offset="0.589844"/><stop stop-opacity="1" stop-color="rgb(100%, 6.82373%, 82.937622%)" offset="0.59375"/><stop stop-opacity="1" stop-color="rgb(100%, 7.142639%, 82.139587%)" offset="0.597656"/><stop stop-opacity="1" stop-color="rgb(100%, 7.461548%, 81.343079%)" offset="0.601563"/><stop stop-opacity="1" stop-color="rgb(100%, 7.780457%, 80.54657%)" offset="0.605469"/><stop stop-opacity="1" stop-color="rgb(100%, 8.099365%, 79.750061%)" offset="0.609375"/><stop stop-opacity="1" stop-color="rgb(100%, 8.418274%, 78.952026%)" offset="0.613281"/><stop stop-opacity="1" stop-color="rgb(100%, 8.737183%, 78.155518%)" offset="0.617188"/><stop stop-opacity="1" stop-color="rgb(100%, 9.056091%, 77.357483%)" offset="0.621094"/><stop stop-opacity="1" stop-color="rgb(100%, 9.375%, 76.560974%)" offset="0.625"/><stop stop-opacity="1" stop-color="rgb(100%, 9.692383%, 75.764465%)" offset="0.628906"/><stop stop-opacity="1" stop-color="rgb(100%, 10.011292%, 74.967957%)" offset="0.632812"/><stop stop-opacity="1" stop-color="rgb(100%, 10.3302%, 74.169922%)" offset="0.636719"/><stop stop-opacity="1" stop-color="rgb(100%, 10.649109%, 73.373413%)" offset="0.640625"/><stop stop-opacity="1" stop-color="rgb(100%, 10.968018%, 72.575378%)" offset="0.644531"/><stop stop-opacity="1" stop-color="rgb(100%, 11.286926%, 71.77887%)" offset="0.648437"/><stop stop-opacity="1" stop-color="rgb(100%, 11.605835%, 70.982361%)" offset="0.652344"/><stop stop-opacity="1" stop-color="rgb(100%, 11.924744%, 70.185852%)" offset="0.65625"/><stop stop-opacity="1" stop-color="rgb(100%, 12.243652%, 69.387817%)" offset="0.660156"/><stop stop-opacity="1" stop-color="rgb(100%, 12.562561%, 68.591309%)" offset="0.664062"/><stop stop-opacity="1" stop-color="rgb(100%, 12.88147%, 67.793274%)" offset="0.667969"/><stop stop-opacity="1" stop-color="rgb(100%, 13.200378%, 66.996765%)" offset="0.671875"/><stop stop-opacity="1" stop-color="rgb(100%, 13.519287%, 66.200256%)" offset="0.675781"/><stop stop-opacity="1" stop-color="rgb(100%, 13.838196%, 65.403748%)" offset="0.679688"/><stop stop-opacity="1" stop-color="rgb(100%, 14.155579%, 64.605713%)" offset="0.683594"/><stop stop-opacity="1" stop-color="rgb(100%, 14.474487%, 63.809204%)" offset="0.6875"/><stop stop-opacity="1" stop-color="rgb(100%, 14.793396%, 63.012695%)" offset="0.691406"/><stop stop-opacity="1" stop-color="rgb(100%, 15.112305%, 62.216187%)" offset="0.695312"/><stop stop-opacity="1" stop-color="rgb(100%, 15.431213%, 61.418152%)" offset="0.699219"/><stop stop-opacity="1" stop-color="rgb(100%, 15.750122%, 60.621643%)" offset="0.703125"/><stop stop-opacity="1" stop-color="rgb(100%, 16.069031%, 59.823608%)" offset="0.707031"/><stop stop-opacity="1" stop-color="rgb(100%, 16.387939%, 59.0271%)" offset="0.710938"/><stop stop-opacity="1" stop-color="rgb(100%, 16.706848%, 58.230591%)" offset="0.714844"/><stop stop-opacity="1" stop-color="rgb(100%, 17.025757%, 57.434082%)" offset="0.71875"/><stop stop-opacity="1" stop-color="rgb(100%, 17.344666%, 56.636047%)" offset="0.722656"/><stop stop-opacity="1" stop-color="rgb(100%, 17.663574%, 55.839539%)" offset="0.726563"/><stop stop-opacity="1" stop-color="rgb(100%, 17.982483%, 55.041504%)" offset="0.730469"/><stop stop-opacity="1" stop-color="rgb(100%, 18.301392%, 54.244995%)" offset="0.734375"/><stop stop-opacity="1" stop-color="rgb(100%, 18.618774%, 53.448486%)" offset="0.738281"/><stop stop-opacity="1" stop-color="rgb(100%, 18.937683%, 52.651978%)" offset="0.742187"/><stop stop-opacity="1" stop-color="rgb(100%, 19.256592%, 51.853943%)" offset="0.746094"/><stop stop-opacity="1" stop-color="rgb(100%, 19.5755%, 51.057434%)" offset="0.75"/><stop stop-opacity="1" stop-color="rgb(100%, 19.894409%, 50.259399%)" offset="0.753906"/><stop stop-opacity="1" stop-color="rgb(100%, 20.213318%, 49.462891%)" offset="0.757812"/><stop stop-opacity="1" stop-color="rgb(100%, 20.532227%, 48.666382%)" offset="0.761719"/><stop stop-opacity="1" stop-color="rgb(100%, 20.851135%, 47.869873%)" offset="0.765625"/><stop stop-opacity="1" stop-color="rgb(100%, 21.170044%, 47.071838%)" offset="0.769531"/><stop stop-opacity="1" stop-color="rgb(100%, 21.488953%, 46.27533%)" offset="0.773437"/><stop stop-opacity="1" stop-color="rgb(100%, 21.807861%, 45.478821%)" offset="0.777344"/><stop stop-opacity="1" stop-color="rgb(100%, 22.12677%, 44.682312%)" offset="0.78125"/><stop stop-opacity="1" stop-color="rgb(100%, 22.445679%, 43.884277%)" offset="0.785156"/><stop stop-opacity="1" stop-color="rgb(100%, 22.764587%, 43.087769%)" offset="0.789062"/><stop stop-opacity="1" stop-color="rgb(100%, 23.08197%, 42.289734%)" offset="0.792969"/><stop stop-opacity="1" stop-color="rgb(100%, 23.400879%, 41.493225%)" offset="0.796875"/><stop stop-opacity="1" stop-color="rgb(100%, 23.719788%, 40.696716%)" offset="0.800781"/><stop stop-opacity="1" stop-color="rgb(100%, 24.038696%, 39.900208%)" offset="0.804688"/><stop stop-opacity="1" stop-color="rgb(100%, 24.357605%, 39.102173%)" offset="0.808594"/><stop stop-opacity="1" stop-color="rgb(100%, 24.676514%, 38.305664%)" offset="0.8125"/><stop stop-opacity="1" stop-color="rgb(100%, 24.995422%, 37.507629%)" offset="0.816406"/><stop stop-opacity="1" stop-color="rgb(100%, 25.314331%, 36.711121%)" offset="0.820312"/><stop stop-opacity="1" stop-color="rgb(100%, 25.63324%, 35.914612%)" offset="0.824219"/><stop stop-opacity="1" stop-color="rgb(100%, 25.952148%, 35.118103%)" offset="0.828125"/><stop stop-opacity="1" stop-color="rgb(100%, 26.271057%, 34.320068%)" offset="0.832031"/><stop stop-opacity="1" stop-color="rgb(100%, 26.589966%, 33.52356%)" offset="0.835938"/><stop stop-opacity="1" stop-color="rgb(100%, 26.908875%, 32.725525%)" offset="0.839844"/><stop stop-opacity="1" stop-color="rgb(100%, 27.227783%, 31.929016%)" offset="0.84375"/><stop stop-opacity="1" stop-color="rgb(100%, 27.545166%, 31.132507%)" offset="0.847656"/><stop stop-opacity="1" stop-color="rgb(100%, 27.864075%, 30.335999%)" offset="0.851562"/><stop stop-opacity="1" stop-color="rgb(100%, 28.182983%, 29.537964%)" offset="0.855469"/><stop stop-opacity="1" stop-color="rgb(100%, 28.501892%, 28.741455%)" offset="0.859375"/><stop stop-opacity="1" stop-color="rgb(100%, 28.820801%, 27.94342%)" offset="0.863281"/><stop stop-opacity="1" stop-color="rgb(100%, 29.139709%, 27.146912%)" offset="0.867187"/><stop stop-opacity="1" stop-color="rgb(100%, 29.458618%, 26.350403%)" offset="0.871094"/><stop stop-opacity="1" stop-color="rgb(100%, 29.777527%, 25.553894%)" offset="0.875"/><stop stop-opacity="1" stop-color="rgb(100%, 30.096436%, 24.755859%)" offset="0.878906"/><stop stop-opacity="1" stop-color="rgb(100%, 30.415344%, 23.959351%)" offset="0.882812"/><stop stop-opacity="1" stop-color="rgb(100%, 30.734253%, 23.162842%)" offset="0.886719"/><stop stop-opacity="1" stop-color="rgb(100%, 31.053162%, 22.366333%)" offset="0.890625"/><stop stop-opacity="1" stop-color="rgb(100%, 31.37207%, 21.568298%)" offset="0.894531"/><stop stop-opacity="1" stop-color="rgb(100%, 31.690979%, 20.77179%)" offset="0.898438"/><stop stop-opacity="1" stop-color="rgb(100%, 32.008362%, 19.973755%)" offset="0.902344"/><stop stop-opacity="1" stop-color="rgb(100%, 32.327271%, 19.177246%)" offset="0.90625"/><stop stop-opacity="1" stop-color="rgb(100%, 32.646179%, 18.380737%)" offset="0.910156"/><stop stop-opacity="1" stop-color="rgb(100%, 32.965088%, 17.584229%)" offset="0.914062"/><stop stop-opacity="1" stop-color="rgb(100%, 33.283997%, 16.786194%)" offset="0.917969"/><stop stop-opacity="1" stop-color="rgb(100%, 33.602905%, 15.989685%)" offset="0.921875"/><stop stop-opacity="1" stop-color="rgb(100%, 33.921814%, 15.19165%)" offset="0.925781"/><stop stop-opacity="1" stop-color="rgb(100%, 34.240723%, 14.395142%)" offset="0.929688"/><stop stop-opacity="1" stop-color="rgb(100%, 34.559631%, 13.598633%)" offset="0.933594"/><stop stop-opacity="1" stop-color="rgb(100%, 34.87854%, 12.802124%)" offset="0.9375"/><stop stop-opacity="1" stop-color="rgb(100%, 35.197449%, 12.004089%)" offset="0.941406"/><stop stop-opacity="1" stop-color="rgb(100%, 35.516357%, 11.207581%)" offset="0.945313"/><stop stop-opacity="1" stop-color="rgb(100%, 35.835266%, 10.409546%)" offset="0.949219"/><stop stop-opacity="1" stop-color="rgb(100%, 36.154175%, 9.613037%)" offset="0.953125"/><stop stop-opacity="1" stop-color="rgb(100%, 36.471558%, 8.816528%)" offset="0.957031"/><stop stop-opacity="1" stop-color="rgb(100%, 36.790466%, 8.02002%)" offset="0.960937"/><stop stop-opacity="1" stop-color="rgb(100%, 37.109375%, 7.221985%)" offset="0.964844"/><stop stop-opacity="1" stop-color="rgb(100%, 37.428284%, 6.425476%)" offset="0.96875"/><stop stop-opacity="1" stop-color="rgb(100%, 37.747192%, 5.628967%)" offset="0.972656"/><stop stop-opacity="1" stop-color="rgb(100%, 38.066101%, 4.832458%)" offset="0.976562"/><stop stop-opacity="1" stop-color="rgb(100%, 38.38501%, 4.034424%)" offset="0.980469"/><stop stop-opacity="1" stop-color="rgb(100%, 38.703918%, 3.237915%)" offset="0.984375"/><stop stop-opacity="1" stop-color="rgb(100%, 39.022827%, 2.43988%)" offset="0.988281"/><stop stop-opacity="1" stop-color="rgb(100%, 39.341736%, 1.643372%)" offset="0.992188"/><stop stop-opacity="1" stop-color="rgb(100%, 39.660645%, 0.846863%)" offset="0.996094"/><stop stop-opacity="1" stop-color="rgb(100%, 39.979553%, 0.050354%)" offset="1"/></linearGradient><clipPath id="e8ab47d7b9"><path d="M 226 229 L 290 229 L 290 303 L 226 303 Z M 226 229 " clip-rule="nonzero"/></clipPath><clipPath id="17a327fdda"><path d="M 278.640625 223.335938 L 295 236.503906 L 235.742188 310.117188 L 219.382812 296.949219 Z M 278.640625 223.335938 " clip-rule="nonzero"/></clipPath><clipPath id="e78efa1288"><path d="M 278.640625 223.335938 L 295 236.503906 L 235.742188 310.117188 L 219.382812 296.949219 Z M 278.640625 223.335938 " clip-rule="nonzero"/></clipPath><clipPath id="5757e6a066"><path d="M 278.640625 223.335938 L 295 236.503906 L 235.742188 310.117188 L 219.382812 296.949219 Z M 278.640625 223.335938 " clip-rule="nonzero"/></clipPath></defs><g clip-path="url(#155058e73b)"><rect x="-37.5" fill="url(#8df0300c66)" width="450" y="-37.499999" height="449.999989"/></g><path fill="#ffffff" d="M 289.480469 67.515625 C 292.574219 67.515625 295.105469 70.046875 295.105469 73.144531 L 295.105469 301.996094 C 295.105469 305.09375 292.574219 307.625 289.480469 307.625 L 99.445312 307.625 C 96.351562 307.625 93.820312 305.09375 93.820312 301.996094 L 93.820312 280.617188 L 113.371094 280.617188 C 119.5625 280.617188 124.625 275.695312 124.625 269.363281 C 124.625 263.175781 119.5625 258.113281 113.371094 258.113281 L 93.820312 258.113281 L 93.820312 247.984375 L 113.371094 247.984375 C 119.5625 247.984375 124.625 242.921875 124.625 236.730469 C 124.625 230.402344 119.5625 225.476562 113.371094 225.476562 L 93.820312 225.476562 L 93.820312 215.210938 L 113.371094 215.210938 C 119.5625 215.210938 124.625 210.144531 124.625 203.957031 C 124.625 197.769531 119.5625 192.703125 113.371094 192.703125 L 93.820312 192.703125 L 93.820312 182.4375 L 113.371094 182.4375 C 119.5625 182.4375 124.625 177.371094 124.625 171.183594 C 124.625 164.996094 119.5625 159.929688 113.371094 159.929688 L 93.820312 159.929688 L 93.820312 149.664062 L 113.371094 149.664062 C 119.5625 149.664062 124.625 144.597656 124.625 138.410156 C 124.625 132.21875 119.5625 127.15625 113.371094 127.15625 L 93.820312 127.15625 L 93.820312 116.886719 L 113.371094 116.886719 C 119.5625 116.886719 124.625 111.824219 124.625 105.636719 C 124.625 99.445312 119.5625 94.382812 113.371094 94.382812 L 93.820312 94.382812 L 93.820312 73.144531 C 93.820312 70.046875 96.351562 67.515625 99.445312 67.515625 Z M 85.660156 100.007812 C 82.425781 100.007812 80.035156 102.542969 80.035156 105.636719 C 80.035156 108.730469 82.425781 111.261719 85.660156 111.261719 L 113.371094 111.261719 C 116.464844 111.261719 119 108.730469 119 105.636719 C 119 102.542969 116.464844 100.007812 113.371094 100.007812 Z M 85.660156 132.78125 C 82.425781 132.78125 80.035156 135.316406 80.035156 138.410156 C 80.035156 141.503906 82.425781 144.035156 85.660156 144.035156 L 113.371094 144.035156 C 116.464844 144.035156 119 141.503906 119 138.410156 C 119 135.316406 116.464844 132.78125 113.371094 132.78125 Z M 85.660156 165.558594 C 82.425781 165.558594 80.035156 168.089844 80.035156 171.183594 C 80.035156 174.277344 82.425781 176.808594 85.660156 176.808594 L 113.371094 176.808594 C 116.464844 176.808594 119 174.277344 119 171.183594 C 119 168.089844 116.464844 165.558594 113.371094 165.558594 Z M 85.660156 198.332031 C 82.425781 198.332031 80.035156 200.863281 80.035156 203.957031 C 80.035156 207.050781 82.425781 209.582031 85.660156 209.582031 L 113.371094 209.582031 C 116.464844 209.582031 119 207.050781 119 203.957031 C 119 200.863281 116.464844 198.332031 113.371094 198.332031 Z M 85.660156 231.105469 C 82.425781 231.105469 80.035156 233.496094 80.035156 236.730469 C 80.035156 239.824219 82.425781 242.359375 85.660156 242.359375 L 113.371094 242.359375 C 116.464844 242.359375 119 239.824219 119 236.730469 C 119 233.496094 116.464844 231.105469 113.371094 231.105469 Z M 85.660156 263.738281 C 82.425781 263.738281 80.035156 266.269531 80.035156 269.363281 C 80.035156 272.597656 82.425781 274.992188 85.660156 274.992188 L 113.371094 274.992188 C 116.464844 274.992188 119 272.597656 119 269.363281 C 119 266.269531 116.464844 263.738281 113.371094 263.738281 Z M 216.898438 136.863281 C 223.789062 136.863281 229.980469 139.675781 234.480469 144.175781 C 238.980469 148.679688 241.792969 155.007812 241.792969 161.898438 C 241.792969 168.792969 238.980469 174.980469 234.480469 179.480469 C 229.980469 183.984375 223.789062 186.796875 216.898438 186.796875 C 210.003906 186.796875 203.675781 183.984375 199.175781 179.480469 C 194.671875 174.980469 191.859375 168.792969 191.859375 161.898438 C 191.859375 155.007812 194.671875 148.679688 199.175781 144.175781 C 203.675781 139.675781 210.003906 136.863281 216.898438 136.863281 Z M 197.488281 190.734375 L 236.308594 190.734375 C 242.78125 190.734375 248.6875 193.40625 253.046875 197.769531 C 257.265625 201.988281 259.941406 207.894531 259.941406 214.507812 L 259.941406 232.652344 C 259.941406 235.746094 257.546875 238.277344 254.3125 238.277344 L 179.339844 238.277344 C 176.246094 238.277344 173.714844 235.746094 173.714844 232.652344 L 173.714844 214.507812 C 173.714844 207.894531 176.386719 201.988281 180.75 197.769531 C 184.96875 193.40625 190.875 190.734375 197.488281 190.734375 Z M 283.851562 78.769531 L 149.804688 78.769531 L 149.804688 296.371094 L 283.851562 296.371094 Z M 283.851562 78.769531 " fill-opacity="1" fill-rule="nonzero"/><g clip-path="url(#e8ab47d7b9)"><g clip-path="url(#17a327fdda)"><g clip-path="url(#e78efa1288)"><g clip-path="url(#5757e6a066)"><path fill="#ffffff" d="M 284.101562 249.855469 C 283.296875 250.796875 282.429688 251.683594 281.515625 252.515625 C 270.339844 265.269531 259.386719 278.316406 248.816406 291.617188 C 248.832031 291.742188 248.789062 291.878906 248.644531 291.949219 C 247.035156 292.726562 245.429688 293.507812 243.824219 294.285156 C 238.308594 296.890625 232.871094 299.859375 227.378906 302.46875 C 227.195312 302.546875 227.007812 302.617188 226.820312 302.671875 C 226.585938 302.75 226.433594 302.425781 226.652344 302.308594 C 228.695312 294.53125 231.574219 286.726562 234.453125 279.132812 C 244.402344 265.984375 255.378906 252.996094 265.9375 240.269531 C 267.644531 237.363281 269.753906 234.472656 272.441406 232.46875 C 272.445312 232.464844 272.460938 232.464844 272.476562 232.464844 C 272.53125 232.425781 272.609375 232.433594 272.632812 232.507812 C 272.695312 232.527344 272.734375 232.546875 272.78125 232.558594 C 278.792969 224.296875 294.535156 236.132812 287.414062 244.175781 C 287.5 244.257812 287.523438 244.394531 287.558594 244.507812 C 286.996094 246.460938 285.449219 248.226562 284.101562 249.855469 Z M 284.101562 249.855469 " fill-opacity="1" fill-rule="nonzero"/><path fill="#000000" d="M 278.691406 246.984375 C 275.542969 243.847656 271.867188 241.246094 267.863281 239.308594 C 272.867188 242.203125 277.441406 245.84375 281.347656 250.109375 C 281.378906 250.078125 281.410156 250.042969 281.441406 250.011719 C 280.574219 248.957031 279.660156 247.945312 278.691406 246.984375 Z M 286.933594 245.910156 C 287.117188 245.375 287.75 244.71875 287.414062 244.175781 C 294.40625 236.164062 279.011719 224.332031 272.78125 232.558594 C 272.6875 232.53125 272.53125 232.453125 272.441406 232.46875 C 270.710938 233.785156 269.246094 235.40625 267.953125 237.179688 C 259.570312 248.929688 249.476562 259.582031 240.71875 271.082031 C 238.585938 273.984375 236.03125 276.617188 234.238281 279.703125 C 233.46875 281.738281 232.707031 283.789062 231.960938 285.851562 C 230.035156 291.171875 228.226562 296.511719 226.75 301.945312 C 226.65625 302.3125 227.027344 302.617188 227.378906 302.46875 C 234.519531 298.808594 241.84375 295.488281 248.816406 291.617188 C 260.242188 277.417969 271.695312 263.203125 284.101562 249.855469 C 285.199219 248.628906 286.199219 247.3125 286.933594 245.910156 Z M 255.625 253.714844 C 259.128906 249.40625 262.628906 245.101562 266.148438 240.808594 C 267.664062 241.484375 269.179688 242.207031 270.511719 243.203125 C 269.078125 244.828125 250.25 266.25 240.976562 277.609375 C 239.671875 277.804688 238.375 278.050781 237.082031 278.308594 C 236.660156 278.335938 235.613281 278.84375 235.726562 278.058594 C 242.378906 269.964844 249.027344 261.859375 255.625 253.714844 Z M 272.085938 244.382812 C 273.820312 245.714844 275.480469 247.140625 277.074219 248.636719 C 271.046875 255.65625 255.347656 274.007812 247.949219 282.898438 C 239.367188 284.972656 242.109375 286.429688 241.261719 277.960938 C 251.03125 266.386719 260.96875 254.921875 270.957031 243.535156 C 271.335938 243.816406 271.714844 244.097656 272.085938 244.382812 Z M 279.742188 251.273438 C 280.105469 251.667969 280.496094 252.039062 280.816406 252.464844 C 269.824219 264.890625 259.097656 277.566406 248.957031 290.703125 C 248.136719 291.292969 248.597656 288.949219 248.480469 288.554688 C 248.480469 286.746094 248.484375 284.941406 248.324219 283.144531 C 258.148438 271.859375 267.792969 260.417969 277.503906 249.035156 C 278.265625 249.765625 279.015625 250.507812 279.742188 251.273438 Z M 267.425781 238.777344 C 268.484375 237.167969 269.699219 235.667969 271.027344 234.273438 C 276.722656 237.390625 281.867188 241.511719 286.128906 246.410156 C 285.003906 248.089844 283.71875 249.65625 282.296875 251.089844 C 278.359375 245.925781 273.160156 241.75 267.265625 239.023438 C 267.320312 238.941406 267.371094 238.859375 267.425781 238.777344 Z M 283.414062 231.773438 C 287.574219 233.984375 290.671875 239.679688 287.199219 243.867188 C 283.179688 239.464844 278.226562 235.933594 273.226562 232.722656 C 275.792969 229.6875 280.25 229.878906 283.414062 231.773438 Z M 271.949219 233.339844 C 272.121094 233.179688 272.285156 233 272.46875 232.847656 C 276.488281 234.988281 280.085938 238.035156 283.550781 241.011719 C 284.761719 242.175781 286.46875 243.308594 287.074219 244.90625 C 286.859375 245.273438 286.636719 245.636719 286.402344 245.996094 C 282.148438 241.132812 277.039062 237.023438 271.371094 233.917969 C 271.5625 233.722656 271.753906 233.53125 271.949219 233.339844 Z M 234.757812 279.433594 C 234.804688 279.304688 234.917969 279.207031 235.054688 279.195312 C 236.25 279.042969 237.4375 278.820312 238.621094 278.601562 C 239.179688 278.632812 240.703125 277.863281 240.871094 278.570312 C 241.042969 279.507812 240.550781 285.371094 241.511719 285.199219 C 241.511719 285.199219 241.511719 285.199219 241.511719 285.195312 C 242.503906 285.15625 244.949219 284.367188 246.558594 283.871094 C 247.574219 283.59375 248.109375 283.136719 247.941406 284.46875 C 247.929688 286.847656 247.949219 289.226562 247.957031 291.605469 C 244.414062 293.324219 240.871094 295.054688 237.34375 296.8125 C 236.578125 297.015625 234.339844 298.746094 233.839844 298.164062 C 233.433594 296.347656 232.117188 294.648438 230.183594 294.371094 C 229.941406 294.335938 229.769531 294.105469 229.808594 293.863281 C 229.808594 293.863281 229.808594 293.859375 229.808594 293.859375 C 231.355469 289.019531 233.15625 284.257812 234.757812 279.433594 Z M 227.460938 301.167969 C 228.089844 299.148438 228.738281 297.132812 229.398438 295.121094 C 229.453125 294.957031 229.597656 294.835938 229.761719 294.816406 C 231.6875 295.074219 233.320312 296.878906 233.242188 298.863281 C 231.363281 299.816406 229.484375 300.761719 227.609375 301.714844 C 227.273438 301.75 227.371094 301.371094 227.460938 301.167969 Z M 281.828125 251.554688 C 281.636719 251.738281 281.445312 251.921875 281.25 252.097656 C 276.910156 247.515625 272.109375 243.234375 266.511719 240.25 C 266.671875 239.976562 266.835938 239.703125 267.003906 239.433594 C 272.867188 242.136719 278.046875 246.289062 281.949219 251.433594 C 281.910156 251.476562 281.867188 251.515625 281.828125 251.554688 Z M 281.828125 251.554688 " fill-opacity="1" fill-rule="nonzero"/></g></g></g></g></svg>